<svg width="29" height="29" viewBox="0 0 29 29" fill="none" xmlns="http://www.w3.org/2000/svg">
<path d="M28 1.80005C28.2 2.60005 28.3 3.40007 28.4 4.20007C28.4 4.70007 28.4 5.50002 28.4 6.40002C28.4 9.00002 27.7 11.3 26.4 13.3C25.3 14.9 23.6 16.5 21.4 17.9V23.6001C21.4 24.1001 21.3 24.6 21 25C20.8 25.4 20.4 25.7 19.9 26L14.6 28.7001C14.1 28.9001 13.7 28.8001 13.3 28.6001C12.9 28.3001 12.6999 28 12.6999 27.5V22.3C11.7999 22.7 11.1 23 10.6 23.3C10.4 23.3 10.3 23.4 10.1 23.3C9.89995 23.3 9.69995 23.2001 9.59995 23.1001L6.09995 19.6001C5.99995 19.5001 5.9 19.3001 5.9 19.1001C5.9 18.9001 5.9 18.8001 5.9 18.6001C6.2 18.0001 6.6 17.3 6.9 16.5H1.69993C1.29993 16.5 0.899951 16.3 0.599951 15.9C0.399951 15.5 0.399951 15.1001 0.599951 14.6001L3.30002 9.20007C3.50002 8.80007 3.79993 8.40007 4.19993 8.20007C4.59993 7.90007 5.09995 7.80005 5.59995 7.80005H11.3C12.7 5.60005 14.3 3.90005 15.9 2.80005C17.9 1.50005 20.2 0.800049 22.8 0.800049C23.8 0.800049 24.5 0.800049 25 0.800049C25.8 0.900049 26.6 1.00007 27.4 1.20007C27.7 1.20007 28 1.50005 28 1.80005ZM22.3 9.5C23 9.5 23.5999 9.30005 24.1999 8.80005C24.6999 8.30005 24.9 7.60002 24.9 6.90002C24.9 6.20002 24.6999 5.6001 24.1999 5.1001C23.5999 4.5001 23 4.30005 22.3 4.30005C21.6 4.30005 20.9 4.5001 20.4 5.1001C19.9 5.6001 19.6999 6.20002 19.6999 6.90002C19.6999 7.60002 19.9 8.30005 20.4 8.80005C20.9 9.30005 21.6 9.5 22.3 9.5Z" fill="#69D2E7"/>
</svg>
