<svg width="28" height="25" viewBox="0 0 28 25" fill="none" xmlns="http://www.w3.org/2000/svg">
<path d="M25.7 0.300049C26.3 0.300049 26.8 0.500024 27.3 0.900024C27.7 1.40002 27.9 1.9 27.9 2.5V17.5C27.9 18.2 27.7 18.7001 27.3 19.1001C26.8 19.6001 26.3 19.8 25.7 19.8H16.7L17.4 22.1001H20.8C21.1 22.1001 21.4 22.2 21.6 22.4C21.8 22.6 21.9 22.9001 21.9 23.2001C21.9 23.5001 21.8 23.8 21.6 24C21.4 24.2 21.1 24.3 20.8 24.3H8C7.7 24.3 7.50005 24.2 7.30005 24C7.00005 23.8 6.90002 23.5001 6.90002 23.2001C6.90002 22.9001 7.00005 22.6 7.30005 22.4C7.50005 22.2 7.7 22.1001 8 22.1001H11.4L12.2 19.8H3.19995C2.49995 19.8 1.99998 19.6001 1.59998 19.1001C1.09998 18.7001 0.900024 18.2 0.900024 17.5V2.5C0.900024 1.9 1.09998 1.40002 1.59998 0.900024C1.99998 0.500024 2.49995 0.300049 3.19995 0.300049H25.7ZM24.9 16.8V3.30005H3.90002V16.8H24.9Z" fill="url(#paint0_linear_2_147)"/>
<defs>
<linearGradient id="paint0_linear_2_147" x1="2.00002" y1="11.8" x2="27" y2="11.8" gradientUnits="userSpaceOnUse">
<stop stop-color="#69D2E7"/>
<stop offset="1" stop-color="#817BFF"/>
</linearGradient>
</defs>
</svg>
