<svg width="28" height="19" viewBox="0 0 28 19" fill="none" xmlns="http://www.w3.org/2000/svg">
<path d="M18.9 0.300049C20.5 0.300049 22 0.7 23.4 1.5C24.8 2.3 25.9 3.40005 26.7 4.80005C27.5 6.20005 27.9 7.70005 27.9 9.30005C27.9 10.9 27.5 12.4 26.7 13.8C25.9 15.2 24.8 16.3001 23.4 17.1001C22 17.9001 20.5 18.3 18.9 18.3H9.89999C8.29999 18.3 6.79999 17.9001 5.39999 17.1001C3.99999 16.3001 3.00001 15.2 2.10001 13.8C1.30001 12.4 0.899994 10.9 0.899994 9.30005C0.899994 7.70005 1.30001 6.20005 2.10001 4.80005C3.00001 3.40005 3.99999 2.3 5.39999 1.5C6.79999 0.7 8.29999 0.300049 9.89999 0.300049H18.9ZM3.89999 9.30005C3.89999 10.4 4.20001 11.4 4.70001 12.3C5.30001 13.2 5.99999 14 6.89999 14.5C7.79999 15 8.79999 15.3 9.89999 15.3C11 15.3 12 15 12.9 14.5C13.9 14 14.6 13.2 15.1 12.3C15.7 11.4 15.9 10.4 15.9 9.30005C15.9 8.20005 15.7 7.20005 15.1 6.30005C14.6 5.30005 13.9 4.6001 12.9 4.1001C12 3.6001 11 3.30005 9.89999 3.30005C8.79999 3.30005 7.79999 3.6001 6.89999 4.1001C5.99999 4.6001 5.30001 5.30005 4.70001 6.30005C4.20001 7.20005 3.89999 8.20005 3.89999 9.30005ZM18.9 15.3C20 15.3 21 15 21.9 14.5C22.9 14 23.6 13.2 24.1 12.3C24.7 11.4 24.9 10.4 24.9 9.30005C24.9 8.20005 24.7 7.20005 24.1 6.30005C23.6 5.30005 22.9 4.6001 21.9 4.1001C21 3.6001 20 3.30005 18.9 3.30005H16.6C17.6 4.40005 18.3 5.7001 18.7 7.1001C19 8.6001 19 10 18.7 11.5C18.3 12.9 17.6 14.2 16.6 15.3H18.9Z" fill="url(#paint0_linear_2_154)"/>
<defs>
<linearGradient id="paint0_linear_2_154" x1="0.999994" y1="9.30005" x2="28" y2="9.30005" gradientUnits="userSpaceOnUse">
<stop stop-color="#69D2E7"/>
<stop offset="1" stop-color="#817BFF"/>
</linearGradient>
</defs>
</svg>
